# AST/ASF file generated using VICON BodyLanguage
# -----------------------------------------------
:version 1.10
:name VICON
:units
  mass 1.0
  length 0.45
  angle deg
:documentation
   .ast/.asf automatically generated from VICON data using
   VICON BodyBuilder and BodyLanguage model FoxedUp or BRILLIANT.MOD
:root
   order TX TY TZ RX RY RZ
   axis XYZ
   position 0 0 0  
   orientation 0 0 0 
:bonedata
  begin
     id 1 
     name lhipjoint
     direction 0.716712 -0.619771 0.3197 
     length 2.67249 
     axis 0 0 0  XYZ
  end
  begin
     id 2 
     name lfemur
     direction 0.34202 -0.939693 0  
     length 7.04375  
     axis 0 0 20  XYZ
    dof rx ry rz
    limits (-160.0 20.0)
           (-70.0 70.0)
           (-60.0 70.0)
  end
  begin
     id 3 
     name ltibia
     direction 0.34202 -0.939693 0   
     length 8.12233   
     axis 0 0 20   XYZ
    dof rx
    limits (-10.0 170.0)
  end
  begin
     id 4 
     name lfoot
     direction 0.0986665 -0.271084 0.957485   
     length 1.97802   
     axis -90 7.62852e-016 20   XYZ
    dof rx rz
    limits (-45.0 90.0)
           (-70.0 20.0)
  end
  begin
     id 5 
     name ltoes
     direction 1.53569e-011 -4.21962e-011 1   
     length 0.991074   
     axis -90 7.62852e-016 20   XYZ
    dof rx
    limits (-90.0 20.0)
  end
  begin
     id 6 
     name rhipjoint
     direction -0.684484 -0.647907 0.334213   
     length 2.55643  
     axis 0 0 0  XYZ 
  end
  begin
     id 7 
     name rfemur
     direction -0.34202 -0.939693 0   
     length 7.00452   
     axis 0 0 -20   XYZ
    dof rx ry rz
    limits (-160.0 20.0)
           (-70.0 70.0)
           (-70.0 60.0)
  end
  begin
     id 8 
     name rtibia
     direction -0.34202 -0.939693 0   
     length 7.98545   
     axis 0 0 -20   XYZ
    dof rx
    limits (-10.0 170.0)
 end
 begin
     id 9 
     name rfoot
     direction -0.0877828 -0.241181 0.966502   
     length 2.17223  
     axis -90 -7.62852e-016 -20   XYZ
    dof rx rz
    limits (-45.0 90.0)
           (-20.0 70.0)
  end
  begin
     id 10 
     name rtoes
     direction -1.53586e-011 -4.22014e-011 1   
     length 1.0886   
     axis -90 -7.62852e-016 -20   XYZ
    dof rx
    limits (-90.0 20.0)
  end
  begin
     id 11 
     name lowerback
     direction -0.0470064 0.989573 -0.136149   
     length 2.05976   
     axis 0 0 0   XYZ
    dof rx ry rz
    limits (-20.0 45.0)
           (-30.0 30.0)
           (-30.0 30.0)
  end
  begin
     id 12 
     name upperback
     direction -0.00532895 0.998093 0.0615045   
     length 2.02286   
     axis 0 0 0   XYZ
    dof rx ry rz
    limits (-20.0 45.0)
           (-30.0 30.0)
           (-30.0 30.0)
  end
  begin
     id 13 
     name thorax
     direction 0.0171558 0.991502 0.128954   
     length 2.09196   
     axis 0 0 0   XYZ
    dof rx ry rz
    limits (-20.0 45.0)
           (-30.0 30.0)
           (-30.0 30.0)
  end
  begin
     id 14 
     name lowerneck
     direction 0.0221176 0.995362 0.0936194   
     length 1.70234   
     axis 0 0 0   XYZ
    dof rx ry rz
    limits (-20.0 45.0)
           (-30.0 30.0)
           (-30.0 30.0)
  end
  begin
     id 15 
     name upperneck
     direction -0.0237973 0.998511 -0.0490877   
     length 1.66068   
     axis 0 0 0   XYZ
    dof rx ry rz
    limits (-20.0 45.0)
           (-30.0 30.0)
           (-30.0 30.0)
  end
  begin
     id 16
     name head
     direction -0.00980141 0.999531 -0.0289958  
     length 1.82618  
     axis 0 0 0   XYZ
    dof rx ry rz
    limits (-20.0 45.0)
           (-30.0 30.0)
           (-30.0 30.0)
  end
  begin
     id 17 
     name lclavicle
     direction 0.894784 0.445864 -0.0238113  
     length 3.37997  
     axis 0 0 0   XYZ
    dof ry rz
    limits (-20.0 10.0)
           (0.0 20.0)
  end
  begin
     id 18 
     name lhumerus
     direction 1 -4.48975e-011 6.49229e-028   
     length 5.79016   
     axis 180 -30 -90   XYZ
    dof rx ry rz
    limits (-60.0 90.0)
           (-90.0 90.0)
           (-90.0 90.0)
  end
  begin
     id 19
     name lradius
     direction 1 -4.48959e-011 2.80427e-027   
     length 3.48314   
     axis 180 -30 -90   XYZ
    dof rx
    limits (-10.0 170.0)
  end
  begin
     id 20
     name lwrist
     direction 1 -4.48938e-011 5.60449e-029   
     length 1.74157   
     axis 8.48505e-016 90 90   XYZ
    dof ry
    limits (-180.0 0.0)
 end
  begin
     id 21 
     name lhand
     direction 1 -4.49048e-011 1.1209e-028   
     length 0.587065   
     axis -7.15228e-017 90 90   XYZ
    dof rx rz
    limits (-90.0 90.0)
           (-45.0 45.0)
  end
  begin
     id 22 
     name lfingers
     direction 1 -4.49036e-011 2.24179e-028   
     length 0.473307   
     axis -1.43046e-016 90 90   XYZ
    dof rx
    limits (0.0 90.0)
  end
  begin
     id 23
     name lthumb
     direction 0.707107 -6.34878e-011 0.707107   
     length 0.679577   
     axis -90 45 2.85299e-015   XYZ
    dof rx rz
    limits (-45.0 45.0)
           (-45.0 45.0)
  end
  begin
     id 24 
     name rclavicle
     direction -0.952963 0.303049 0.00480459   
     length 3.50503  
     axis 0 0 0   XYZ 
    dof ry rz
    limits (-10.0 20.0)
           (-20.0 0.0)
  end
  begin
     id 25 
     name rhumerus
     direction -1 -4.48973e-011 -1.5431e-027  
     length 5.69822   
     axis 180 30 90   XYZ
    dof rx ry rz
    limits (-90.0 60.0)
           (-90.0 90.0)
           (-90.0 90.0)
  end
  begin
     id 26 
     name rradius
     direction -1 -4.4896e-011 2.11972e-027   
     length 3.58077   
     axis 180 30 90   XYZ
    dof rx
    limits (-10.0 170.0)
  end
  begin
     id 27 
     name rwrist
     direction -1 -4.48943e-011 5.60449e-029   
     length 1.79039   
     axis 8.48505e-016 -90 -90   XYZ
    dof ry
    limits (-180.0 0.0)
  end
  begin
     id 28
     name rhand
     direction -1 -4.49007e-011 1.1209e-028   
     length 0.620156   
     axis -7.15228e-017 -90 -90   XYZ
    dof rx rz
    limits (-90.0 90.0)
           (-45.0 45.0)
  end
  begin
     id 29
     name rfingers
     direction -1 -4.49025e-011 2.24179e-028   
     length 0.499985   
     axis -1.43046e-016 -90 -90   XYZ
    dof rx
    limits (0.0 90.0)
  end
  begin
     id 30
     name rthumb
     direction -0.707107 -6.3481e-011 0.707107   
     length 0.717882   
     axis -90 -45 -2.85299e-015   XYZ
    dof rx rz
    limits (-45.0 45.0)
           (-45.0 45.0)
  end
:hierarchy
  begin
    root lhipjoint rhipjoint lowerback
    lhipjoint lfemur
    lfemur ltibia
    ltibia lfoot
    lfoot ltoes
    rhipjoint rfemur
    rfemur rtibia
    rtibia rfoot
    rfoot rtoes
    lowerback upperback
    upperback thorax
    thorax lowerneck lclavicle rclavicle
    lowerneck upperneck
    upperneck head
    lclavicle lhumerus
    lhumerus lradius
    lradius lwrist
    lwrist lhand lthumb
    lhand lfingers
    rclavicle rhumerus
    rhumerus rradius
    rradius rwrist
    rwrist rhand rthumb
    rhand rfingers
  end

#!OML:ASF H:\Terrain\Patient Classification 1\PaulMetrics\March17Take4\PaulMetrics.ASF
:FULLY-SPECIFIED
:DEGREES
1113
root -7.35591 17.2731 -3.38662 -177.142 -216.483 -180.26
lowerback 3.08259 -0.0867933 -4.03099
upperback -2.60985 -0.294044 0.553484
thorax -4.40826 -0.00816344 2.85481
lowerneck -5.70798 5.36045 5.15818
upperneck 16.9973 7.92352 -6.2713
head 6.55486 3.73994 -2.24493
rclavicle 4.17883e-014 1.85864e-014
rhumerus -47.428 9.5577 -87.6464
rradius 37.3854
rwrist -5.79107
rhand -14.1048 -31.3702
rfingers 7.12502
rthumb 12.0281 -61.0046
lclavicle 4.17883e-014 1.85864e-014
lhumerus -46.0886 -14.7241 89.5365
lradius 40.6458
lwrist 18.6863
lhand -10.4827 -17.1978
lfingers 7.12502
lthumb 15.5187 12.1995
rfemur -25.6618 4.47551 21.0765
rtibia 35.4839
rfoot -11.6924 -8.31632
rtoes 9.80168
lfemur -16.6681 0.0870719 -22.2481
ltibia 65.3725
lfoot 4.88305 2.92588
ltoes 5.28602
1114
root -7.30987 17.2914 -3.27263 -177.3 -216.464 -180.295
lowerback 3.23838 0.0377992 -4.03689
upperback -2.5445 -0.133146 0.573893
thorax -4.44152 0.0718035 2.86889
lowerneck -5.88868 5.25613 4.74425
upperneck 17.2395 7.75057 -5.7712
head 6.61733 3.66222 -2.0265
rclavicle -7.4757e-014 -1.15295e-014
rhumerus -47.2878 9.6148 -87.468
rradius 37.4215
rwrist -5.62306
rhand -13.8949 -31.2313
rfingers 7.12502
rthumb 12.2305 -60.8537
lclavicle -7.4757e-014 -1.15295e-014
lhumerus -46.0926 -14.5018 89.4828
lradius 40.0877
lwrist 17.595
lhand -9.41037 -17.1926
lfingers 7.12502
lthumb 16.5514 12.1216
rfemur -24.7975 4.62928 21.2701
rtibia 35.0861
rfoot -11.9414 -8.42063
rtoes 10.0695
lfemur -17.7243 0.448528 -22.2507
ltibia 66.3545
lfoot 3.73836 2.97755
ltoes 3.25018
1115
root -7.26076 17.3069 -3.15905 -177.429 -216.506 -180.64
lowerback 3.09588 0.131633 -3.79684
upperback -2.52893 0.0138386 0.645331
thorax -4.35487 0.136559 2.79733
lowerneck -5.44533 5.08588 4.57723
upperneck 16.7913 7.48341 -5.55029
head 6.36704 3.55255 -1.9662
rclavicle -3.80952e-015 -4.37326e-015
rhumerus -47.1451 9.33471 -87.1676
rradius 37.4728
rwrist -5.24606
rhand -13.8877 -31.082
rfingers 7.12502
rthumb 12.2374 -60.704
lclavicle -3.80952e-015 -4.37326e-015
lhumerus -46.1535 -14.4053 89.4563
lradius 39.5628
lwrist 16.9545
lhand -8.95196 -17.3175
lfingers 7.12502
lthumb 16.9927 11.9592
rfemur -24.1865 4.77945 21.7189
rtibia 34.7516
rfoot -12.1317 -8.67772
rtoes 9.22882
lfemur -19.0389 0.715086 -21.9859
ltibia 67.1933
lfoot 2.48005 2.76401
ltoes 1.23989
1116
root -7.20941 17.322 -3.05475 -177.196 -216.677 -180.522
lowerback 2.956 0.267811 -3.78219
upperback -2.53607 0.19642 0.492082
thorax -4.29593 0.223382 2.61762
lowerneck -5.2865 4.89832 4.68708
upperneck 16.5803 7.17489 -5.377
head 6.25338 3.42713 -1.95941
rclavicle -3.52672e-014 -1.37161e-014
rhumerus -47.0233 8.78587 -86.9424
rradius 37.5597
rwrist -5.06112
rhand -14.1319 -30.9119
rfingers 7.12502
rthumb 12.0019 -60.5477
lclavicle -3.52672e-014 -1.37161e-014
lhumerus -46.1636 -14.7234 89.5323
lradius 39.1181
lwrist 17.0309
lhand -8.94909 -17.626
lfingers 7.12502
lthumb 16.9954 11.6505
rfemur -23.7481 4.67071 21.7249
rtibia 34.4776
rfoot -12.3649 -8.82206
rtoes 8.24799
lfemur -20.4717 0.747167 -22.2253
ltibia 67.8283
lfoot 1.32885 2.71027
ltoes 0.589245
1117
root -7.16123 17.3356 -2.94403 -177.073 -216.735 -180.347
lowerback 2.96608 0.410553 -3.89761
upperback -2.50192 0.375531 0.334715
thorax -4.27933 0.312475 2.5073
lowerneck -5.71446 4.85182 4.80852
upperneck 16.9735 7.06277 -5.14306
head 6.44304 3.38642 -1.90065
rclavicle 2.62939e-014 -1.98785e-015
rhumerus -46.837 8.5249 -86.8655
rradius 37.6592
rwrist -5.18496
rhand -14.1324 -31.0789
rfingers 7.12502
rthumb 12.0015 -60.7148
lclavicle 2.62939e-014 -1.98785e-015
lhumerus -46.0721 -15.1012 89.5925
lradius 38.5932
lwrist 17.2463
lhand -8.82061 -17.7791
lfingers 7.12502
lthumb 17.1191 11.4867
rfemur -23.1809 4.85116 21.6835
rtibia 34.2311
rfoot -12.8108 -9.02392
rtoes 8.75151
lfemur -21.6869 0.933405 -22.5083
ltibia 68.2277
lfoot 0.389079 2.47498
ltoes -0.781468
1118
root -7.10867 17.3519 -2.83382 -177.14 -216.734 -180.288
lowerback 3.01212 0.448801 -4.00204
upperback -2.44864 0.420337 0.338104
thorax -4.25459 0.336512 2.56642
lowerneck -5.76527 4.82651 4.90375
upperneck 17.2037 7.04913 -5.25227
head 6.53163 3.37597 -1.94951
rclavicle -7.29664e-014 0
rhumerus -46.609 8.61252 -86.6919
rradius 37.7099
rwrist -5.17638
rhand -14.0039 -31.4736
rfingers 7.12502
rthumb 12.1254 -61.1022
lclavicle -7.29664e-014 0
lhumerus -46.12 -15.0078 89.5751
lradius 38.2849
lwrist 17.1145
lhand -8.38717 -16.9478
lfingers 7.12502
lthumb 17.5363 12.2813
rfemur -22.4952 5.09579 21.7388
rtibia 34.0363
rfoot -13.1943 -9.21823
rtoes 8.62579
lfemur -22.6651 1.20557 -22.6862
ltibia 68.4281
lfoot -0.313055 1.91947
ltoes -1.86449
